<?xml version="1.0" encoding="UTF-8"?><svg id="b" xmlns="http://www.w3.org/2000/svg" width="743.92" height="814.85" xmlns:xlink="http://www.w3.org/1999/xlink" viewBox="0 0 743.92 814.85"><defs><style>.en{clip-path:url(#ba);}.eo{clip-path:url(#ay);}.ep{clip-path:url(#dw);}.eq{clip-path:url(#an);}.er{clip-path:url(#t);}.es{clip-path:url(#bn);}.et{clip-path:url(#i);}.eu{clip-path:url(#af);}.ev{clip-path:url(#ek);}.ew{clip-path:url(#x);}.ex{clip-path:url(#eg);}.ey{clip-path:url(#k);}.ez{clip-path:url(#ds);}.fa{clip-path:url(#q);}.fb{clip-path:url(#dm);}.fc{clip-path:url(#by);}.fd{clip-path:url(#ar);}.fe{clip-path:url(#dc);}.ff{clip-path:url(#dd);}.fg{clip-path:url(#bb);}.fh{clip-path:url(#bz);}.fi{clip-path:url(#m);}.fj{clip-path:url(#bp);}.fk{clip-path:url(#dq);}.fl,.fm{fill:#fff;}.fl,.fn{stroke:#fff;stroke-miterlimit:10;stroke-width:42px;}.fo{clip-path:url(#dl);}.fp{clip-path:url(#f);}.fq{clip-path:url(#ef);}.fr{clip-path:url(#ee);}.fs{clip-path:url(#j);}.ft{clip-path:url(#aa);}.fu{clip-path:url(#eh);}.fv{clip-path:url(#ai);}.fw{clip-path:url(#cc);}.fx{clip-path:url(#bs);}.fy{clip-path:url(#bk);}.fz{clip-path:url(#co);}.ga{clip-path:url(#bv);}.gb{clip-path:url(#bc);}.gc{clip-path:url(#ac);}.gd{clip-path:url(#ad);}.ge{clip-path:url(#da);}.gf{clip-path:url(#cd);}.gg{clip-path:url(#bi);}.gh{clip-path:url(#al);}.gi{clip-path:url(#dn);}.gj{clip-path:url(#ax);}.gk{clip-path:url(#av);}.gl{clip-path:url(#bg);}.gm{clip-path:url(#ed);}.gn,.fn{fill:none;}.go{fill:#d12a20;}.gp{clip-path:url(#dg);}.gq{clip-path:url(#am);}.gr{clip-path:url(#bw);}.gs{clip-path:url(#cs);}.gt{clip-path:url(#ch);}.gu{clip-path:url(#aq);}.gv{clip-path:url(#ce);}.gw{clip-path:url(#p);}.gx{clip-path:url(#cn);}.gy{clip-path:url(#h);}.gz{clip-path:url(#ak);}.ha{clip-path:url(#do);}.hb{clip-path:url(#bo);}.hc{clip-path:url(#bq);}.hd{clip-path:url(#ag);}.he{clip-path:url(#o);}.hf{isolation:isolate;}.hg{clip-path:url(#v);}.hh{clip-path:url(#bd);}.hi{clip-path:url(#dy);}.hj{clip-path:url(#n);}.hk{clip-path:url(#cz);}.hl{clip-path:url(#db);}.hm{clip-path:url(#ec);}.hn{clip-path:url(#cq);}.ho{clip-path:url(#cw);}.hp{clip-path:url(#bu);}.hq{clip-path:url(#cy);}.hr{clip-path:url(#be);}.hs{clip-path:url(#r);}.ht{clip-path:url(#br);}.hu{clip-path:url(#eb);}.hv{clip-path:url(#ct);}.hw{clip-path:url(#cl);}.hx{clip-path:url(#cj);}.hy{clip-path:url(#df);}.hz{clip-path:url(#bj);}.ia{clip-path:url(#ei);}.ib{clip-path:url(#s);}.ic{clip-path:url(#az);}.id{clip-path:url(#at);}.ie{clip-path:url(#el);}.if{clip-path:url(#g);}.ig{clip-path:url(#ci);}.ih{clip-path:url(#bx);}.ii{clip-path:url(#z);}.ij{clip-path:url(#ao);}.ik{clip-path:url(#em);}.il{clip-path:url(#ap);}.im{clip-path:url(#bl);}.in{clip-path:url(#l);}.io{clip-path:url(#d);}.ip{clip-path:url(#di);}.iq{clip-path:url(#ae);}.ir{clip-path:url(#cp);}.is{clip-path:url(#bm);}.it{clip-path:url(#dh);}.iu{clip-path:url(#dt);}.iv{clip-path:url(#e);}.iw{clip-path:url(#au);}.ix{clip-path:url(#cf);}.iy{clip-path:url(#ca);}.iz{clip-path:url(#aj);}.ja{clip-path:url(#w);}.jb{clip-path:url(#cv);}.jc{clip-path:url(#ab);}.jd{clip-path:url(#bf);}.je{clip-path:url(#ea);}.jf{clip-path:url(#cu);}.jg{clip-path:url(#de);}.jh{clip-path:url(#dr);}.ji{clip-path:url(#dv);}.jj{clip-path:url(#ah);}.jk{clip-path:url(#ej);}.jl{clip-path:url(#y);}.jm{clip-path:url(#dx);}.jn{clip-path:url(#dk);}.jo{clip-path:url(#cg);}.jp{clip-path:url(#du);}.jq{clip-path:url(#ck);}.jr{clip-path:url(#as);}.js{clip-path:url(#cb);}.jt{clip-path:url(#cm);}.ju{clip-path:url(#u);}.jv{clip-path:url(#dz);}.jw{clip-path:url(#bh);}.jx{clip-path:url(#bt);}.jy{clip-path:url(#dp);}.jz{clip-path:url(#aw);}.ka{clip-path:url(#dj);}.kb{clip-path:url(#cx);}.kc{clip-path:url(#cr);}</style><clipPath id="d"><rect class="fl" x="21" y="548.81" width="42.68" height="243.87"/></clipPath><clipPath id="e"><rect class="fl" x="21" y="548.76" width="42.72" height="244.08"/></clipPath><clipPath id="f"><rect class="fl" x="61.92" y="467.77" width="42.69" height="324.92"/></clipPath><clipPath id="g"><rect class="fl" x="61.8" y="467.64" width="42.96" height="325.2"/></clipPath><clipPath id="h"><rect class="fl" x="102.78" y="424.62" width="44.38" height="368.07"/></clipPath><clipPath id="i"><rect class="fl" x="102.6" y="424.44" width="44.64" height="368.4"/></clipPath><clipPath id="j"><rect class="fl" x="600.47" y="425.78" width="42.69" height="368.07"/></clipPath><clipPath id="k"><rect class="fl" x="600.36" y="425.64" width="42.96" height="368.4"/></clipPath><clipPath id="l"><rect class="fl" x="639.32" y="470.03" width="42.69" height="323.82"/></clipPath><clipPath id="m"><rect class="fl" x="639.24" y="469.8" width="42.96" height="324.24"/></clipPath><clipPath id="n"><rect class="fl" x="680.23" y="548.14" width="42.69" height="245.71"/></clipPath><clipPath id="o"><rect class="fl" x="680.04" y="548.04" width="42.96" height="246"/></clipPath><clipPath id="p"><rect class="fl" x="145.22" y="465.88" width="459.52" height="42.69"/></clipPath><clipPath id="q"><rect class="fl" x="145.08" y="465.72" width="459.84" height="42.96"/></clipPath><clipPath id="r"><rect class="fl" x="310.69" y="21" width="120.75" height="43.95"/></clipPath><clipPath id="s"><rect class="fl" x="310.68" y="21" width="120.96" height="44.16"/></clipPath><clipPath id="t"><rect class="fl" x="267.99" y="63.68" width="206.87" height="42.69"/></clipPath><clipPath id="u"><rect class="fl" x="267.96" y="63.48" width="207.12" height="42.96"/></clipPath><clipPath id="v"><rect class="fl" x="228.95" y="104.29" width="286.83" height="42.69"/></clipPath><clipPath id="w"><rect class="fl" x="228.84" y="104.28" width="287.04" height="42.72"/></clipPath><clipPath id="x"><rect class="fl" x="188.03" y="145.47" width="369.67" height="42.69"/></clipPath><clipPath id="y"><rect class="fl" x="187.8" y="145.32" width="370.08" height="42.96"/></clipPath><clipPath id="z"><rect class="fl" x="188.03" y="187.58" width="369.67" height="42.69"/></clipPath><clipPath id="aa"><rect class="fl" x="187.8" y="187.56" width="370.08" height="42.72"/></clipPath><clipPath id="ab"><rect class="fl" x="147.17" y="227.27" width="120.83" height="44.7"/></clipPath><clipPath id="ac"><rect class="fl" x="147" y="227.16" width="121.2" height="44.88"/></clipPath><clipPath id="ad"><rect class="fl" x="475.62" y="227.27" width="120.83" height="45.7"/></clipPath><clipPath id="ae"><rect class="fl" x="475.56" y="227.16" width="120.96" height="45.84"/></clipPath><clipPath id="af"><rect class="fl" x="147.17" y="269.95" width="79.9" height="42.69"/></clipPath><clipPath id="ag"><rect class="fl" x="147" y="269.88" width="80.16" height="42.96"/></clipPath><clipPath id="ah"><rect class="fl" x="147.17" y="310.56" width="79.9" height="42.69"/></clipPath><clipPath id="ai"><rect class="fl" x="147" y="310.44" width="80.16" height="42.96"/></clipPath><clipPath id="aj"><rect class="fl" x="147.17" y="344.46" width="79.9" height="42.69"/></clipPath><clipPath id="ak"><rect class="fl" x="147" y="344.28" width="80.16" height="42.96"/></clipPath><clipPath id="al"><rect class="fl" x="516.55" y="272.26" width="79.9" height="42.69"/></clipPath><clipPath id="am"><rect class="fl" x="516.36" y="272.04" width="80.16" height="42.96"/></clipPath><clipPath id="an"><rect class="fl" x="516.55" y="306.16" width="79.9" height="42.69"/></clipPath><clipPath id="ao"><rect class="fl" x="516.36" y="306.12" width="80.16" height="42.96"/></clipPath><clipPath id="ap"><rect class="fl" x="516.55" y="348.07" width="79.9" height="42.69"/></clipPath><clipPath id="aq"><rect class="fl" x="516.36" y="347.88" width="80.16" height="42.96"/></clipPath><clipPath id="ar"><rect class="fl" x="475.62" y="384.01" width="79.9" height="46.46"/></clipPath><clipPath id="as"><rect class="fl" x="475.56" y="383.88" width="80.16" height="46.8"/></clipPath><clipPath id="at"><rect class="fl" x="475.61" y="425.77" width="126.74" height="42.69"/></clipPath><clipPath id="au"><rect class="fl" x="475.56" y="425.64" width="126.96" height="42.96"/></clipPath><clipPath id="av"><rect class="fl" x="140.28" y="424.61" width="126.74" height="42.69"/></clipPath><clipPath id="aw"><rect class="fl" x="140.04" y="424.44" width="127.2" height="42.96"/></clipPath><clipPath id="ax"><rect class="fl" x="187.12" y="384.01" width="79.9" height="42.69"/></clipPath><clipPath id="ay"><rect class="fl" x="187.08" y="383.88" width="80.16" height="42.96"/></clipPath><clipPath id="az"><rect class="fl" x="309.13" y="423.2" width="122.31" height="46.83"/></clipPath><clipPath id="ba"><rect class="fl" x="309" y="423" width="122.64" height="47.04"/></clipPath><clipPath id="bb"><rect class="fl" x="309.29" y="383.08" width="122.31" height="42.69"/></clipPath><clipPath id="bc"><rect class="fl" x="309.24" y="382.92" width="122.4" height="42.96"/></clipPath><clipPath id="bd"><rect class="fl" x="267.02" y="341.32" width="207.85" height="42.69"/></clipPath><clipPath id="be"><rect class="fl" x="267" y="341.16" width="208.08" height="42.96"/></clipPath><clipPath id="bf"><rect class="fl" x="267.02" y="305.04" width="79.9" height="46.46"/></clipPath><clipPath id="bg"><rect class="fl" x="267" y="304.92" width="79.92" height="46.8"/></clipPath><clipPath id="bh"><rect class="fl" x="394.97" y="302.35" width="79.9" height="46.46"/></clipPath><clipPath id="bi"><rect class="fl" x="394.92" y="302.28" width="80.16" height="46.56"/></clipPath><clipPath id="bj"><rect class="fl" x="188.54" y="548.76" width="365.78" height="242.64"/></clipPath><clipPath id="bk"><rect class="fl" x="188.52" y="548.52" width="366" height="242.88"/></clipPath><clipPath id="bl"><rect class="fl" x="265.87" y="672.16" width="43.43" height="44.43"/></clipPath><clipPath id="bm"><rect class="fl" x="265.8" y="672.12" width="43.68" height="44.64"/></clipPath><clipPath id="bn"><rect class="fl" x="309.3" y="627.73" width="43.43" height="44.43"/></clipPath><clipPath id="bo"><rect class="fl" x="309.24" y="627.72" width="43.68" height="44.64"/></clipPath><clipPath id="bp"><rect class="fl" x="265.7" y="583.3" width="43.43" height="44.43"/></clipPath><clipPath id="bq"><rect class="fl" x="265.56" y="583.08" width="43.68" height="44.88"/></clipPath><clipPath id="br"><rect class="fl" x="392.12" y="711.21" width="43.43" height="44.43"/></clipPath><clipPath id="bs"><rect class="fl" x="392.04" y="711" width="43.68" height="44.88"/></clipPath><clipPath id="bt"><rect class="fl" x="434.27" y="711.21" width="44.71" height="44.43"/></clipPath><clipPath id="bu"><rect class="fl" x="434.04" y="711" width="45.12" height="44.88"/></clipPath><clipPath id="bv"><rect class="gn" x="19.28" y="548.43" width="42.68" height="243.87"/></clipPath><clipPath id="bw"><rect class="gn" x="19.28" y="548.38" width="42.72" height="244.08"/></clipPath><clipPath id="bx"><rect class="gn" x="60.2" y="467.38" width="42.69" height="324.92"/></clipPath><clipPath id="by"><rect class="gn" x="60.08" y="467.26" width="42.96" height="325.2"/></clipPath><clipPath id="bz"><rect class="gn" x="101.06" y="424.23" width="44.38" height="368.07"/></clipPath><clipPath id="ca"><rect class="gn" x="100.88" y="424.06" width="44.64" height="368.4"/></clipPath><clipPath id="cb"><rect class="gn" x="598.76" y="425.4" width="42.69" height="368.07"/></clipPath><clipPath id="cc"><rect class="gn" x="598.64" y="425.26" width="42.96" height="368.4"/></clipPath><clipPath id="cd"><rect class="gn" x="637.6" y="469.65" width="42.69" height="323.82"/></clipPath><clipPath id="ce"><rect class="gn" x="637.52" y="469.42" width="42.96" height="324.24"/></clipPath><clipPath id="cf"><rect class="gn" x="678.51" y="547.75" width="42.69" height="245.71"/></clipPath><clipPath id="cg"><rect class="gn" x="678.32" y="547.66" width="42.96" height="246"/></clipPath><clipPath id="ch"><rect class="gn" x="143.5" y="465.5" width="459.52" height="42.69"/></clipPath><clipPath id="ci"><rect class="gn" x="143.36" y="465.34" width="459.84" height="42.96"/></clipPath><clipPath id="cj"><rect class="gn" x="308.97" y="20.62" width="120.75" height="43.95"/></clipPath><clipPath id="ck"><rect class="gn" x="308.96" y="20.62" width="120.96" height="44.16"/></clipPath><clipPath id="cl"><rect class="gn" x="266.28" y="63.3" width="206.87" height="42.69"/></clipPath><clipPath id="cm"><rect class="gn" x="266.24" y="63.1" width="207.12" height="42.96"/></clipPath><clipPath id="cn"><rect class="gn" x="227.23" y="103.9" width="286.83" height="42.69"/></clipPath><clipPath id="co"><rect class="gn" x="227.12" y="103.9" width="287.04" height="42.72"/></clipPath><clipPath id="cp"><rect class="gn" x="186.32" y="145.09" width="369.67" height="42.69"/></clipPath><clipPath id="cq"><rect class="gn" x="186.08" y="144.94" width="370.08" height="42.96"/></clipPath><clipPath id="cr"><rect class="gn" x="186.32" y="187.2" width="369.67" height="42.69"/></clipPath><clipPath id="cs"><rect class="gn" x="186.08" y="187.18" width="370.08" height="42.72"/></clipPath><clipPath id="ct"><rect class="gn" x="145.45" y="226.88" width="120.83" height="44.7"/></clipPath><clipPath id="cu"><rect class="gn" x="145.28" y="226.78" width="121.2" height="44.88"/></clipPath><clipPath id="cv"><rect class="gn" x="473.91" y="226.88" width="120.83" height="45.7"/></clipPath><clipPath id="cw"><rect class="gn" x="473.84" y="226.78" width="120.96" height="45.84"/></clipPath><clipPath id="cx"><rect class="gn" x="145.45" y="269.57" width="79.9" height="42.69"/></clipPath><clipPath id="cy"><rect class="gn" x="145.28" y="269.5" width="80.16" height="42.96"/></clipPath><clipPath id="cz"><rect class="gn" x="145.45" y="310.17" width="79.9" height="42.69"/></clipPath><clipPath id="da"><rect class="gn" x="145.28" y="310.06" width="80.16" height="42.96"/></clipPath><clipPath id="db"><rect class="gn" x="145.45" y="344.07" width="79.9" height="42.69"/></clipPath><clipPath id="dc"><rect class="gn" x="145.28" y="343.9" width="80.16" height="42.96"/></clipPath><clipPath id="dd"><rect class="gn" x="514.83" y="271.88" width="79.9" height="42.69"/></clipPath><clipPath id="de"><rect class="gn" x="514.64" y="271.66" width="80.16" height="42.96"/></clipPath><clipPath id="df"><rect class="gn" x="514.83" y="305.78" width="79.9" height="42.69"/></clipPath><clipPath id="dg"><rect class="gn" x="514.64" y="305.74" width="80.16" height="42.96"/></clipPath><clipPath id="dh"><rect class="gn" x="514.83" y="347.69" width="79.9" height="42.69"/></clipPath><clipPath id="di"><rect class="gn" x="514.64" y="347.5" width="80.16" height="42.96"/></clipPath><clipPath id="dj"><rect class="gn" x="473.9" y="383.62" width="79.9" height="46.46"/></clipPath><clipPath id="dk"><rect class="gn" x="473.84" y="383.5" width="80.16" height="46.8"/></clipPath><clipPath id="dl"><rect class="gn" x="473.9" y="425.39" width="126.74" height="42.69"/></clipPath><clipPath id="dm"><rect class="gn" x="473.84" y="425.26" width="126.96" height="42.96"/></clipPath><clipPath id="dn"><rect class="gn" x="138.56" y="424.22" width="126.74" height="42.69"/></clipPath><clipPath id="do"><rect class="gn" x="138.32" y="424.06" width="127.2" height="42.96"/></clipPath><clipPath id="dp"><rect class="gn" x="185.4" y="383.63" width="79.9" height="42.69"/></clipPath><clipPath id="dq"><rect class="gn" x="185.36" y="383.5" width="80.16" height="42.96"/></clipPath><clipPath id="dr"><rect class="gn" x="307.41" y="422.81" width="122.31" height="46.83"/></clipPath><clipPath id="ds"><rect class="gn" x="307.28" y="422.62" width="122.64" height="47.04"/></clipPath><clipPath id="dt"><rect class="gn" x="307.58" y="382.7" width="122.31" height="42.69"/></clipPath><clipPath id="du"><rect class="gn" x="307.52" y="382.54" width="122.4" height="42.96"/></clipPath><clipPath id="dv"><rect class="gn" x="265.3" y="340.94" width="207.85" height="42.69"/></clipPath><clipPath id="dw"><rect class="gn" x="265.28" y="340.78" width="208.08" height="42.96"/></clipPath><clipPath id="dx"><rect class="gn" x="265.3" y="304.66" width="79.9" height="46.46"/></clipPath><clipPath id="dy"><rect class="gn" x="265.28" y="304.54" width="79.92" height="46.8"/></clipPath><clipPath id="dz"><rect class="gn" x="393.25" y="301.96" width="79.9" height="46.46"/></clipPath><clipPath id="ea"><rect class="gn" x="393.2" y="301.9" width="80.16" height="46.56"/></clipPath><clipPath id="eb"><rect class="gn" x="186.82" y="548.37" width="365.78" height="242.64"/></clipPath><clipPath id="ec"><rect class="gn" x="186.8" y="548.14" width="366" height="242.88"/></clipPath><clipPath id="ed"><rect class="gn" x="264.15" y="671.78" width="43.43" height="44.43"/></clipPath><clipPath id="ee"><rect class="gn" x="264.08" y="671.74" width="43.68" height="44.64"/></clipPath><clipPath id="ef"><rect class="gn" x="307.58" y="627.34" width="43.43" height="44.43"/></clipPath><clipPath id="eg"><rect class="gn" x="307.52" y="627.34" width="43.68" height="44.64"/></clipPath><clipPath id="eh"><rect class="gn" x="263.99" y="582.91" width="43.43" height="44.43"/></clipPath><clipPath id="ei"><rect class="gn" x="263.84" y="582.7" width="43.68" height="44.88"/></clipPath><clipPath id="ej"><rect class="gn" x="390.4" y="710.83" width="43.43" height="44.43"/></clipPath><clipPath id="ek"><rect class="gn" x="390.32" y="710.62" width="43.68" height="44.88"/></clipPath><clipPath id="el"><rect class="gn" x="432.55" y="710.83" width="44.71" height="44.43"/></clipPath><clipPath id="em"><rect class="gn" x="432.32" y="710.62" width="45.12" height="44.88"/></clipPath></defs><g id="c"><rect class="fm" x="21" y="548.81" width="42.68" height="243.87"/><g class="io"><g class="hf"><rect class="fm" x="21" y="548.76" width="42.72" height="244.08"/><g class="iv"><rect class="fl" x="20.99" y="548.81" width="42.69" height="243.8"/></g><rect class="fn" x="21" y="548.76" width="42.72" height="244.08"/></g></g><rect class="fn" x="21" y="548.81" width="42.68" height="243.87"/><rect class="fm" x="61.92" y="467.77" width="42.69" height="324.92"/><g class="fp"><g class="hf"><rect class="fm" x="61.8" y="467.64" width="42.96" height="325.2"/><g class="if"><rect class="fl" x="61.92" y="467.77" width="42.69" height="324.84"/></g><rect class="fn" x="61.8" y="467.64" width="42.96" height="325.2"/></g></g><rect class="fn" x="61.92" y="467.77" width="42.69" height="324.92"/><rect class="fm" x="102.78" y="424.62" width="44.38" height="368.07"/><g class="gy"><g class="hf"><rect class="fm" x="102.6" y="424.44" width="44.64" height="368.4"/><g class="et"><rect class="fl" x="102.78" y="424.62" width="44.38" height="368.03"/></g><rect class="fn" x="102.6" y="424.44" width="44.64" height="368.4"/></g></g><rect class="fn" x="102.78" y="424.62" width="44.38" height="368.07"/><rect class="fm" x="600.47" y="425.78" width="42.69" height="368.07"/><g class="fs"><g class="hf"><rect class="fm" x="600.36" y="425.64" width="42.96" height="368.4"/><g class="ey"><rect class="fl" x="600.47" y="425.78" width="42.69" height="368.03"/></g><rect class="fn" x="600.36" y="425.64" width="42.96" height="368.4"/></g></g><rect class="fn" x="600.47" y="425.78" width="42.69" height="368.07"/><rect class="fm" x="639.32" y="470.03" width="42.69" height="323.82"/><g class="in"><g class="hf"><rect class="fm" x="639.24" y="469.8" width="42.96" height="324.24"/><g class="fi"><rect class="fl" x="639.32" y="470.03" width="42.69" height="323.84"/></g><rect class="fn" x="639.24" y="469.8" width="42.96" height="324.24"/></g></g><rect class="fn" x="639.32" y="470.03" width="42.69" height="323.82"/><rect class="fm" x="680.23" y="548.14" width="42.69" height="245.71"/><g class="hj"><g class="hf"><rect class="fm" x="680.04" y="548.04" width="42.96" height="246"/><g class="he"><rect class="fl" x="680.23" y="548.14" width="42.69" height="245.63"/></g><rect class="fn" x="680.04" y="548.04" width="42.96" height="246"/></g></g><rect class="fn" x="680.23" y="548.14" width="42.69" height="245.71"/><rect class="fm" x="145.22" y="465.88" width="459.52" height="42.69"/><g class="gw"><g class="hf"><rect class="fm" x="145.08" y="465.72" width="459.84" height="42.96"/><g class="fa"><rect class="fl" x="145.16" y="465.88" width="459.58" height="42.69"/></g><rect class="fn" x="145.08" y="465.72" width="459.84" height="42.96"/></g></g><rect class="fn" x="145.22" y="465.88" width="459.52" height="42.69"/><rect class="fm" x="310.69" y="21" width="120.75" height="43.95"/><g class="hs"><g class="hf"><rect class="fm" x="310.68" y="21" width="120.96" height="44.16"/><g class="ib"><rect class="fl" x="310.74" y="20.99" width="120.7" height="43.95"/></g><rect class="fn" x="310.68" y="21" width="120.96" height="44.16"/></g></g><rect class="fn" x="310.69" y="21" width="120.75" height="43.95"/><rect class="fm" x="267.99" y="63.68" width="206.87" height="42.69"/><g class="er"><g class="hf"><rect class="fm" x="267.96" y="63.48" width="207.12" height="42.96"/><g class="ju"><rect class="fl" x="267.92" y="63.68" width="206.94" height="42.69"/></g><rect class="fn" x="267.96" y="63.48" width="207.12" height="42.96"/></g></g><rect class="fn" x="267.99" y="63.68" width="206.87" height="42.69"/><rect class="fm" x="228.95" y="104.29" width="286.83" height="42.69"/><g class="hg"><g class="hf"><rect class="fm" x="228.84" y="104.28" width="287.04" height="42.72"/><g class="ja"><rect class="fl" x="228.96" y="104.29" width="286.82" height="42.69"/></g><rect class="fn" x="228.84" y="104.28" width="287.04" height="42.72"/></g></g><rect class="fn" x="228.95" y="104.29" width="286.83" height="42.69"/><rect class="fm" x="188.03" y="145.47" width="369.67" height="42.69"/><g class="ew"><g class="hf"><rect class="fm" x="187.8" y="145.32" width="370.08" height="42.96"/><g class="jl"><rect class="fl" x="188.01" y="145.47" width="369.69" height="42.69"/></g><rect class="fn" x="187.8" y="145.32" width="370.08" height="42.96"/></g></g><rect class="fn" x="188.03" y="145.47" width="369.67" height="42.69"/><rect class="fm" x="188.03" y="187.58" width="369.67" height="42.69"/><g class="ii"><g class="hf"><rect class="fm" x="187.8" y="187.56" width="370.08" height="42.72"/><g class="ft"><rect class="fl" x="188.01" y="187.58" width="369.69" height="42.69"/></g><rect class="fn" x="187.8" y="187.56" width="370.08" height="42.72"/></g></g><rect class="fn" x="188.03" y="187.58" width="369.67" height="42.69"/><rect class="fm" x="147.17" y="227.27" width="120.83" height="44.7"/><g class="jc"><g class="hf"><rect class="fm" x="147" y="227.16" width="121.2" height="44.88"/><g class="gc"><rect class="fl" x="147.18" y="227.27" width="120.83" height="44.7"/></g><rect class="fn" x="147" y="227.16" width="121.2" height="44.88"/></g></g><rect class="fn" x="147.17" y="227.27" width="120.83" height="44.7"/><rect class="fm" x="475.62" y="227.27" width="120.83" height="45.7"/><g class="gd"><g class="hf"><rect class="fm" x="475.56" y="227.16" width="120.96" height="45.84"/><g class="iq"><rect class="fl" x="475.61" y="227.26" width="120.85" height="45.7"/></g><rect class="fn" x="475.56" y="227.16" width="120.96" height="45.84"/></g></g><rect class="fn" x="475.62" y="227.27" width="120.83" height="45.7"/><rect class="fm" x="147.17" y="269.95" width="79.9" height="42.69"/><g class="eu"><g class="hf"><rect class="fm" x="147" y="269.88" width="80.16" height="42.96"/><g class="hd"><rect class="fl" x="147.19" y="269.95" width="79.88" height="42.69"/></g><rect class="fn" x="147" y="269.88" width="80.16" height="42.96"/></g></g><rect class="fn" x="147.17" y="269.95" width="79.9" height="42.69"/><rect class="fm" x="147.17" y="310.56" width="79.9" height="42.69"/><g class="jj"><g class="hf"><rect class="fm" x="147" y="310.44" width="80.16" height="42.96"/><g class="fv"><rect class="fl" x="147.19" y="310.56" width="79.88" height="42.69"/></g><rect class="fn" x="147" y="310.44" width="80.16" height="42.96"/></g></g><rect class="fn" x="147.17" y="310.56" width="79.9" height="42.69"/><rect class="fm" x="147.17" y="344.46" width="79.9" height="42.69"/><g class="iz"><g class="hf"><rect class="fm" x="147" y="344.28" width="80.16" height="42.96"/><g class="gz"><rect class="fl" x="147.19" y="344.46" width="79.88" height="42.69"/></g><rect class="fn" x="147" y="344.28" width="80.16" height="42.96"/></g></g><rect class="fn" x="147.17" y="344.46" width="79.9" height="42.69"/><rect class="fm" x="516.55" y="272.26" width="79.9" height="42.69"/><g class="gh"><g class="hf"><rect class="fm" x="516.36" y="272.04" width="80.16" height="42.96"/><g class="gq"><rect class="fl" x="516.58" y="272.26" width="79.88" height="42.69"/></g><rect class="fn" x="516.36" y="272.04" width="80.16" height="42.96"/></g></g><rect class="fn" x="516.55" y="272.26" width="79.9" height="42.69"/><rect class="fm" x="516.55" y="306.16" width="79.9" height="42.69"/><g class="eq"><g class="hf"><rect class="fm" x="516.36" y="306.12" width="80.16" height="42.96"/><g class="ij"><rect class="fl" x="516.58" y="306.16" width="79.88" height="42.69"/></g><rect class="fn" x="516.36" y="306.12" width="80.16" height="42.96"/></g></g><rect class="fn" x="516.55" y="306.16" width="79.9" height="42.69"/><rect class="fm" x="516.55" y="348.07" width="79.9" height="42.69"/><g class="il"><g class="hf"><rect class="fm" x="516.36" y="347.88" width="80.16" height="42.96"/><g class="gu"><rect class="fl" x="516.58" y="348.07" width="79.88" height="42.69"/></g><rect class="fn" x="516.36" y="347.88" width="80.16" height="42.96"/></g></g><rect class="fn" x="516.55" y="348.07" width="79.9" height="42.69"/><rect class="fm" x="475.62" y="384.01" width="79.9" height="46.46"/><g class="fd"><g class="hf"><rect class="fm" x="475.56" y="383.88" width="80.16" height="46.8"/><g class="jr"><rect class="fl" x="475.66" y="384.01" width="79.86" height="46.46"/></g><rect class="fn" x="475.56" y="383.88" width="80.16" height="46.8"/></g></g><rect class="fn" x="475.62" y="384.01" width="79.9" height="46.46"/><rect class="fm" x="475.61" y="425.77" width="126.74" height="42.69"/><g class="id"><g class="hf"><rect class="fm" x="475.56" y="425.64" width="126.96" height="42.96"/><g class="iw"><rect class="fl" x="475.62" y="425.77" width="126.73" height="42.69"/></g><rect class="fn" x="475.56" y="425.64" width="126.96" height="42.96"/></g></g><rect class="fn" x="475.61" y="425.77" width="126.74" height="42.69"/><rect class="fm" x="140.28" y="424.61" width="126.74" height="42.69"/><g class="gk"><g class="hf"><rect class="fm" x="140.04" y="424.44" width="127.2" height="42.96"/><g class="jz"><rect class="fl" x="140.28" y="424.61" width="126.73" height="42.69"/></g><rect class="fn" x="140.04" y="424.44" width="127.2" height="42.96"/></g></g><rect class="fn" x="140.28" y="424.61" width="126.74" height="42.69"/><rect class="fm" x="187.12" y="384.01" width="79.9" height="42.69"/><g class="gj"><g class="hf"><rect class="fm" x="187.08" y="383.88" width="80.16" height="42.96"/><g class="eo"><rect class="fl" x="187.14" y="384.01" width="79.88" height="42.69"/></g><rect class="fn" x="187.08" y="383.88" width="80.16" height="42.96"/></g></g><rect class="fn" x="187.12" y="384.01" width="79.9" height="42.69"/><rect class="fm" x="309.13" y="423.2" width="122.31" height="46.83"/><g class="ic"><g class="hf"><rect class="fm" x="309" y="423" width="122.64" height="47.04"/><g class="en"><rect class="fl" x="309.05" y="423.2" width="122.38" height="46.83"/></g><rect class="fn" x="309" y="423" width="122.64" height="47.04"/></g></g><rect class="fn" x="309.13" y="423.2" width="122.31" height="46.83"/><rect class="fm" x="309.29" y="383.08" width="122.31" height="42.69"/><g class="fg"><g class="hf"><rect class="fm" x="309.24" y="382.92" width="122.4" height="42.96"/><g class="gb"><rect class="fl" x="309.38" y="383.08" width="122.23" height="42.69"/></g><rect class="fn" x="309.24" y="382.92" width="122.4" height="42.96"/></g></g><rect class="fn" x="309.29" y="383.08" width="122.31" height="42.69"/><rect class="fm" x="267.02" y="341.32" width="207.85" height="42.69"/><g class="hh"><g class="hf"><rect class="fm" x="267" y="341.16" width="208.08" height="42.96"/><g class="hr"><rect class="fl" x="267.09" y="341.32" width="207.78" height="42.69"/></g><rect class="fn" x="267" y="341.16" width="208.08" height="42.96"/></g></g><rect class="fn" x="267.02" y="341.32" width="207.85" height="42.69"/><rect class="fm" x="267.02" y="305.04" width="79.9" height="46.46"/><g class="jd"><g class="hf"><rect class="fm" x="267" y="304.92" width="79.92" height="46.8"/><g class="gl"><rect class="fl" x="267.06" y="305.04" width="79.86" height="46.46"/></g><rect class="fn" x="267" y="304.92" width="79.92" height="46.8"/></g></g><rect class="fn" x="267.02" y="305.04" width="79.9" height="46.46"/><rect class="fm" x="394.97" y="302.35" width="79.9" height="46.46"/><g class="jw"><g class="hf"><rect class="fm" x="394.92" y="302.28" width="80.16" height="46.56"/><g class="gg"><rect class="fl" x="395.01" y="302.35" width="79.86" height="46.46"/></g><rect class="fn" x="394.92" y="302.28" width="80.16" height="46.56"/></g></g><rect class="fn" x="394.97" y="302.35" width="79.9" height="46.46"/><rect class="fm" x="188.54" y="548.76" width="365.78" height="242.64"/><g class="hz"><g class="hf"><rect class="fm" x="188.52" y="548.52" width="366" height="242.88"/><g class="fy"><rect class="fl" x="188.47" y="548.76" width="365.85" height="242.64"/></g><rect class="fn" x="188.52" y="548.52" width="366" height="242.88"/></g></g><rect class="fn" x="188.54" y="548.76" width="365.78" height="242.64"/><rect class="fm" x="265.87" y="672.16" width="43.43" height="44.43"/><g class="im"><g class="hf"><rect class="fm" x="265.8" y="672.12" width="43.68" height="44.64"/><g class="is"><rect class="fl" x="265.87" y="672.16" width="43.43" height="44.45"/></g><rect class="fn" x="265.8" y="672.12" width="43.68" height="44.64"/></g></g><rect class="fn" x="265.87" y="672.16" width="43.43" height="44.43"/><rect class="fm" x="309.3" y="627.73" width="43.43" height="44.43"/><g class="es"><g class="hf"><rect class="fm" x="309.24" y="627.72" width="43.68" height="44.64"/><g class="hb"><rect class="fl" x="309.3" y="627.73" width="43.43" height="44.45"/></g><rect class="fn" x="309.24" y="627.72" width="43.68" height="44.64"/></g></g><rect class="fn" x="309.3" y="627.73" width="43.43" height="44.43"/><rect class="fm" x="265.7" y="583.3" width="43.43" height="44.43"/><g class="fj"><g class="hf"><rect class="fm" x="265.56" y="583.08" width="43.68" height="44.88"/><g class="hc"><rect class="fl" x="265.7" y="583.3" width="43.43" height="44.45"/></g><rect class="fn" x="265.56" y="583.08" width="43.68" height="44.88"/></g></g><rect class="fn" x="265.7" y="583.3" width="43.43" height="44.43"/><rect class="fm" x="392.12" y="711.21" width="43.43" height="44.43"/><g class="ht"><g class="hf"><rect class="fm" x="392.04" y="711" width="43.68" height="44.88"/><g class="fx"><rect class="fl" x="392.12" y="711.21" width="43.43" height="44.45"/></g><rect class="fn" x="392.04" y="711" width="43.68" height="44.88"/></g></g><rect class="fn" x="392.12" y="711.21" width="43.43" height="44.43"/><rect class="fm" x="434.27" y="711.21" width="44.71" height="44.43"/><g class="jx"><g class="hf"><rect class="fm" x="434.04" y="711" width="45.12" height="44.88"/><g class="hp"><rect class="fl" x="434.27" y="711.21" width="44.78" height="44.43"/></g><rect class="fn" x="434.04" y="711" width="45.12" height="44.88"/></g></g><rect class="fn" x="434.27" y="711.21" width="44.71" height="44.43"/><g class="ga"><g class="hf"><g class="gr"><rect x="19.28" y="548.43" width="42.69" height="243.8"/></g></g></g><g class="ih"><g class="hf"><g class="fc"><rect x="60.2" y="467.38" width="42.69" height="324.84"/></g></g></g><g class="fh"><g class="hf"><g class="iy"><rect x="101.06" y="424.23" width="44.38" height="368.03"/></g></g></g><g class="js"><g class="hf"><g class="fw"><rect x="598.76" y="425.4" width="42.69" height="368.03"/></g></g></g><g class="gf"><g class="hf"><g class="gv"><rect x="637.6" y="469.65" width="42.69" height="323.84"/></g></g></g><g class="ix"><g class="hf"><g class="jo"><rect x="678.51" y="547.75" width="42.69" height="245.63"/></g></g></g><g class="gt"><g class="hf"><g class="ig"><rect x="143.44" y="465.5" width="459.58" height="42.69"/></g></g></g><g class="hx"><g class="hf"><g class="jq"><rect x="309.02" y="20.61" width="120.7" height="43.95"/></g></g></g><g class="hw"><g class="hf"><g class="jt"><rect x="266.2" y="63.3" width="206.94" height="42.69"/></g></g></g><g class="gx"><g class="hf"><g class="fz"><rect x="227.24" y="103.9" width="286.82" height="42.69"/></g></g></g><g class="ir"><g class="hf"><g class="hn"><rect x="186.29" y="145.09" width="369.69" height="42.69"/></g></g></g><g class="kc"><g class="hf"><g class="gs"><rect x="186.29" y="187.2" width="369.69" height="42.69"/></g></g></g><g class="hv"><g class="hf"><g class="jf"><rect x="145.46" y="226.88" width="120.83" height="44.7"/></g></g></g><g class="jb"><g class="hf"><g class="ho"><rect x="473.89" y="226.88" width="120.85" height="45.7"/></g></g></g><g class="kb"><g class="hf"><g class="hq"><rect x="145.48" y="269.57" width="79.88" height="42.69"/></g></g></g><g class="hk"><g class="hf"><g class="ge"><rect x="145.48" y="310.17" width="79.88" height="42.69"/></g></g></g><g class="hl"><g class="hf"><g class="fe"><rect x="145.48" y="344.07" width="79.88" height="42.69"/></g></g></g><g class="ff"><g class="hf"><g class="jg"><rect x="514.86" y="271.88" width="79.88" height="42.69"/></g></g></g><g class="hy"><g class="hf"><g class="gp"><rect x="514.86" y="305.78" width="79.88" height="42.69"/></g></g></g><g class="it"><g class="hf"><g class="ip"><rect x="514.86" y="347.69" width="79.88" height="42.69"/></g></g></g><g class="ka"><g class="hf"><g class="jn"><rect x="473.94" y="383.62" width="79.86" height="46.46"/></g></g></g><g class="fo"><g class="hf"><g class="fb"><rect x="473.9" y="425.39" width="126.73" height="42.69"/></g></g></g><g class="gi"><g class="hf"><g class="ha"><rect x="138.56" y="424.22" width="126.73" height="42.69"/></g></g></g><g class="jy"><g class="hf"><g class="fk"><rect x="185.43" y="383.63" width="79.88" height="42.69"/></g></g></g><g class="jh"><g class="hf"><g class="ez"><rect x="307.34" y="422.81" width="122.38" height="46.83"/></g></g></g><g class="iu"><g class="hf"><g class="jp"><rect x="307.66" y="382.7" width="122.23" height="42.69"/></g></g></g><g class="ji"><g class="hf"><g class="ep"><rect x="265.37" y="340.94" width="207.78" height="42.69"/></g></g></g><g class="jm"><g class="hf"><g class="hi"><rect x="265.34" y="304.66" width="79.86" height="46.46"/></g></g></g><g class="jv"><g class="hf"><g class="je"><rect x="393.29" y="301.96" width="79.86" height="46.46"/></g></g></g><g class="hu"><g class="hf"><g class="hm"><rect x="186.76" y="548.37" width="365.85" height="242.64"/></g></g></g><g class="gm"><g class="hf"><g class="fr"><rect class="go" x="264.15" y="671.78" width="43.43" height="44.45"/></g></g></g><g class="fq"><g class="hf"><g class="ex"><rect class="go" x="307.58" y="627.34" width="43.43" height="44.45"/></g></g></g><g class="fu"><g class="hf"><g class="ia"><rect class="go" x="263.99" y="582.91" width="43.43" height="44.45"/></g></g></g><g class="jk"><g class="hf"><g class="ev"><rect class="go" x="390.4" y="710.83" width="43.43" height="44.45"/></g></g></g><g class="ie"><g class="hf"><g class="ik"><rect class="go" x="432.55" y="710.83" width="44.78" height="44.43"/></g></g></g></g></svg>