<svg xmlns="http://www.w3.org/2000/svg" viewBox="0 0 200 200">
  <!-- QR Code Style Logo -->
  <rect width="200" height="200" fill="#000000"/>
  
  <!-- Corner squares -->
  <rect x="10" y="10" width="50" height="50" fill="#ffffff"/>
  <rect x="20" y="20" width="30" height="30" fill="#000000"/>
  <rect x="25" y="25" width="20" height="20" fill="#ffffff"/>
  
  <rect x="140" y="10" width="50" height="50" fill="#ffffff"/>
  <rect x="150" y="20" width="30" height="30" fill="#000000"/>
  <rect x="155" y="25" width="20" height="20" fill="#ffffff"/>
  
  <rect x="10" y="140" width="50" height="50" fill="#ffffff"/>
  <rect x="20" y="150" width="30" height="30" fill="#000000"/>
  <rect x="25" y="155" width="20" height="20" fill="#ffffff"/>
  
  <!-- QR Pattern -->
  <rect x="70" y="15" width="10" height="10" fill="#ffffff"/>
  <rect x="85" y="15" width="10" height="10" fill="#ffffff"/>
  <rect x="100" y="15" width="10" height="10" fill="#ffffff"/>
  <rect x="115" y="15" width="10" height="10" fill="#ffffff"/>
  
  <rect x="70" y="30" width="10" height="10" fill="#ffffff"/>
  <rect x="100" y="30" width="10" height="10" fill="#ffffff"/>
  <rect x="115" y="30" width="10" height="10" fill="#ffffff"/>
  
  <rect x="70" y="45" width="10" height="10" fill="#ffffff"/>
  <rect x="85" y="45" width="10" height="10" fill="#ffffff"/>
  <rect x="115" y="45" width="10" height="10" fill="#ffffff"/>
  
  <!-- Center pattern with red accent -->
  <rect x="70" y="70" width="60" height="60" fill="#ffffff"/>
  <rect x="75" y="75" width="50" height="50" fill="#000000"/>
  <rect x="85" y="85" width="30" height="30" fill="#dc143c"/>
  <rect x="95" y="95" width="10" height="10" fill="#000000"/>
  
  <!-- More QR patterns -->
  <rect x="15" y="70" width="10" height="10" fill="#ffffff"/>
  <rect x="30" y="70" width="10" height="10" fill="#ffffff"/>
  <rect x="45" y="70" width="10" height="10" fill="#ffffff"/>
  
  <rect x="15" y="85" width="10" height="10" fill="#ffffff"/>
  <rect x="45" y="85" width="10" height="10" fill="#ffffff"/>
  
  <rect x="15" y="100" width="10" height="10" fill="#ffffff"/>
  <rect x="30" y="100" width="10" height="10" fill="#ffffff"/>
  
  <rect x="15" y="115" width="10" height="10" fill="#ffffff"/>
  <rect x="45" y="115" width="10" height="10" fill="#ffffff"/>
  
  <rect x="140" y="70" width="10" height="10" fill="#ffffff"/>
  <rect x="155" y="70" width="10" height="10" fill="#ffffff"/>
  <rect x="170" y="70" width="10" height="10" fill="#ffffff"/>
  <rect x="185" y="70" width="10" height="10" fill="#ffffff"/>
  
  <rect x="140" y="85" width="10" height="10" fill="#ffffff"/>
  <rect x="170" y="85" width="10" height="10" fill="#ffffff"/>
  <rect x="185" y="85" width="10" height="10" fill="#ffffff"/>
  
  <rect x="155" y="100" width="10" height="10" fill="#ffffff"/>
  <rect x="170" y="100" width="10" height="10" fill="#ffffff"/>
  
  <rect x="140" y="115" width="10" height="10" fill="#ffffff"/>
  <rect x="155" y="115" width="10" height="10" fill="#ffffff"/>
  <rect x="185" y="115" width="10" height="10" fill="#ffffff"/>
  
  <rect x="70" y="140" width="10" height="10" fill="#ffffff"/>
  <rect x="85" y="140" width="10" height="10" fill="#ffffff"/>
  <rect x="100" y="140" width="10" height="10" fill="#ffffff"/>
  
  <rect x="70" y="155" width="10" height="10" fill="#ffffff"/>
  <rect x="100" y="155" width="10" height="10" fill="#ffffff"/>
  
  <rect x="85" y="170" width="10" height="10" fill="#ffffff"/>
  <rect x="100" y="170" width="10" height="10" fill="#ffffff"/>
  
  <rect x="70" y="185" width="10" height="10" fill="#ffffff"/>
  <rect x="100" y="185" width="10" height="10" fill="#ffffff"/>
  
  <rect x="140" y="140" width="10" height="10" fill="#ffffff"/>
  <rect x="155" y="140" width="10" height="10" fill="#ffffff"/>
  <rect x="170" y="140" width="10" height="10" fill="#ffffff"/>
  
  <rect x="140" y="155" width="10" height="10" fill="#ffffff"/>
  <rect x="170" y="155" width="10" height="10" fill="#ffffff"/>
  <rect x="185" y="155" width="10" height="10" fill="#ffffff"/>
  
  <rect x="155" y="170" width="10" height="10" fill="#ffffff"/>
  <rect x="170" y="170" width="10" height="10" fill="#ffffff"/>
  
  <rect x="140" y="185" width="10" height="10" fill="#ffffff"/>
  <rect x="170" y="185" width="10" height="10" fill="#ffffff"/>
  <rect x="185" y="185" width="10" height="10" fill="#ffffff"/>
</svg>
